<?xml version="1.0" encoding="UTF-8" standalone="no"?>
<svg
   xmlns:dc="http://purl.org/dc/elements/1.1/"
   xmlns:cc="http://creativecommons.org/ns#"
   xmlns:rdf="http://www.w3.org/1999/02/22-rdf-syntax-ns#"
   xmlns:svg="http://www.w3.org/2000/svg"
   xmlns="http://www.w3.org/2000/svg"
   xmlns:sodipodi="http://sodipodi.sourceforge.net/DTD/sodipodi-0.dtd"
   xmlns:inkscape="http://www.inkscape.org/namespaces/inkscape"
   width="16"
   height="16"
   version="1.1"
   viewBox="0 0 16 16"
   id="svg6"
   sodipodi:docname="icon.svg"
   inkscape:version="0.92.1 r15371"
   inkscape:export-filename="A:\User Folders\Documents\Godot\Tools\GimbalControl\addons\alanscodelog.gimbalcontrol\icon.png"
   inkscape:export-xdpi="96"
   inkscape:export-ydpi="96">
  <metadata
     id="metadata12">
    <rdf:RDF>
      <cc:Work
         rdf:about="">
        <dc:format>image/svg+xml</dc:format>
        <dc:type
           rdf:resource="http://purl.org/dc/dcmitype/StillImage" />
      </cc:Work>
    </rdf:RDF>
  </metadata>
  <defs
     id="defs10" />
  <sodipodi:namedview
     pagecolor="#ffffff"
     bordercolor="#666666"
     borderopacity="1"
     objecttolerance="10"
     gridtolerance="10"
     guidetolerance="10"
     inkscape:pageopacity="0"
     inkscape:pageshadow="2"
     inkscape:window-width="1388"
     inkscape:window-height="757"
     id="namedview8"
     showgrid="false"
     inkscape:zoom="14.75"
     inkscape:cx="8.7666449"
     inkscape:cy="10.18377"
     inkscape:window-x="0"
     inkscape:window-y="0"
     inkscape:window-maximized="0"
     inkscape:current-layer="g4" />
  <g
     transform="translate(0,-1036.4)"
     id="g4">
    <path
       inkscape:connector-curvature="0"
       id="path4564"
       d="m 2.1620488,1044.441 a 5.8379326,1.9057292 0 0 1 0,-0.041 5.8379326,1.9057292 0 0 1 5.8379,-1.9058 5.8379326,1.9057292 0 0 1 5.8380002,1.9058 v 0 a 5.8379326,1.9057292 0 0 1 0,0.041"
       mask="none"
       style="opacity:1;fill:none;fill-opacity:0;stroke:#3dff49;stroke-width:2;stroke-linecap:butt;stroke-linejoin:miter;stroke-miterlimit:4;stroke-dasharray:none;stroke-opacity:0.87878788;paint-order:stroke fill markers" />
    <path
       style="opacity:1;fill:none;fill-opacity:0;stroke:#ff3d3d;stroke-width:2;stroke-linecap:butt;stroke-linejoin:miter;stroke-miterlimit:4;stroke-dasharray:none;stroke-opacity:0.82828283;paint-order:stroke fill markers"
       mask="none"
       d="m 7.95897,1038.562 a 1.9057292,5.8379326 0 0 1 0.04103,0 1.9057292,5.8379326 0 0 1 1.905729,5.8379 A 1.9057292,5.8379326 0 0 1 8,1050.2379 v 0 a 1.9057292,5.8379326 0 0 1 -0.04118,0"
       id="path4562"
       inkscape:connector-curvature="0" />
    <circle
       style="opacity:1;fill:#000000;fill-opacity:0;stroke:#007cff;stroke-width:2;stroke-linecap:butt;stroke-linejoin:miter;stroke-miterlimit:4;stroke-dasharray:none;stroke-opacity:0.84343435;paint-order:stroke fill markers"
       id="path4519"
       cx="8"
       cy="1044.4"
       r="5.8379326" />
    <path
       inkscape:connector-curvature="0"
       id="path4566"
       d="m 13.835249,1044.4411 a 5.8379326,1.9057292 0 0 1 -5.8367002,1.8646 5.8379326,1.9057292 0 0 1 -5.8365,-1.8647"
       mask="none"
       style="opacity:1;fill:none;fill-opacity:0;stroke:#3dff49;stroke-width:2;stroke-linecap:butt;stroke-linejoin:miter;stroke-miterlimit:4;stroke-dasharray:none;stroke-opacity:0.87878788;paint-order:stroke fill markers" />
    <path
       style="opacity:1;fill:none;fill-opacity:0;stroke:#ff3d3d;stroke-width:2;stroke-linecap:butt;stroke-linejoin:miter;stroke-miterlimit:4;stroke-dasharray:none;stroke-opacity:0.82828283;paint-order:stroke fill markers"
       mask="none"
       d="m 7.958819,1050.2352 a 1.9057292,5.8379326 0 0 1 -1.864548,-5.8367 1.9057292,5.8379326 0 0 1 1.864699,-5.8365"
       id="ellipse4533"
       inkscape:connector-curvature="0" />
  </g>
  <g
     id="g4513"
     transform="translate(0,-1036.4)" />
</svg>
